# This file uses centimeters as units for non-parametric coordinates.

v 21.500000 -1.500000 35.000000
v 26.500000 -1.500000 35.000000
v 21.500000 5.500000 35.000000
v 26.500000 5.500000 35.000000
v 21.500000 5.500000 34.000000
v 26.500000 5.500000 34.000000
v 21.500000 -1.500000 34.000000
v 26.500000 -1.500000 34.000000
vt 0.082899 0.071673
vt 0.119233 0.073025
vt 0.080519 0.098526
vt 0.117486 0.099287
vt 0.080364 0.125577
vt 0.117205 0.125915
vt 0.082434 0.152825
vt 0.118388 0.152909
vt 0.086731 0.180270
vt 0.121036 0.180270
vt 0.152862 0.077082
vt 0.153750 0.102809
vt 0.043861 0.073025
vt 0.042847 0.100527
vn 0.000000 0.000000 1.000000
vn 0.000000 0.000000 1.000000
vn 0.000000 0.000000 1.000000
vn 0.000000 0.000000 1.000000
vn 0.000000 1.000000 0.000000
vn 0.000000 1.000000 0.000000
vn 0.000000 1.000000 0.000000
vn 0.000000 1.000000 0.000000
vn 0.000000 0.000000 -1.000000
vn 0.000000 0.000000 -1.000000
vn 0.000000 0.000000 -1.000000
vn 0.000000 0.000000 -1.000000
vn 0.000000 -1.000000 0.000000
vn 0.000000 -1.000000 0.000000
vn 0.000000 -1.000000 0.000000
vn 0.000000 -1.000000 0.000000
vn 1.000000 0.000000 0.000000
vn 1.000000 0.000000 0.000000
vn 1.000000 0.000000 0.000000
vn 1.000000 0.000000 0.000000
vn -1.000000 0.000000 0.000000
vn -1.000000 0.000000 0.000000
vn -1.000000 0.000000 0.000000
vn -1.000000 0.000000 0.000000
s off
f 1/1/1 2/2/2 4/4/3 3/3/4
f 3/3/5 4/4/6 6/6/7 5/5/8
f 5/5/9 6/6/10 8/8/11 7/7/12
f 7/7/13 8/8/14 2/10/15 1/9/16
f 2/2/17 8/11/18 6/12/19 4/4/20
f 7/13/21 1/1/22 3/3/23 5/14/24
v 21.750000 -1.150000 34.799615
v 26.250000 -1.150000 34.799615
v 21.750000 5.150000 34.799615
v 26.250000 5.150000 34.799615
v 21.750000 5.150000 33.799615
v 26.250000 5.150000 33.799615
v 21.750000 -1.150000 33.799615
v 26.250000 -1.150000 33.799615
vt 0.350000 -0.000000
vt 0.550000 -0.000000
vt 0.250000 0.050000
vt 0.650000 0.050000
vt 0.250000 0.100000
vt 0.650000 0.100000
vt 0.250000 0.700000
vt 0.650000 0.700000
vt 0.350000 0.800000
vt 0.600000 0.800000
vt 0.750000 -0.000000
vt 0.750000 0.050000
vt 0.150000 -0.000000
vt 0.150000 0.050000
vn 0.000000 0.000000 1.000000
vn 0.000000 0.000000 1.000000
vn 0.000000 0.000000 1.000000
vn 0.000000 0.000000 1.000000
vn 0.000000 1.000000 0.000000
vn 0.000000 1.000000 0.000000
vn 0.000000 1.000000 0.000000
vn 0.000000 1.000000 0.000000
vn 0.000000 0.000000 -1.000000
vn 0.000000 0.000000 -1.000000
vn 0.000000 0.000000 -1.000000
vn 0.000000 0.000000 -1.000000
vn 0.000000 -1.000000 0.000000
vn 0.000000 -1.000000 0.000000
vn 0.000000 -1.000000 0.000000
vn 0.000000 -1.000000 0.000000
vn 1.000000 0.000000 0.000000
vn 1.000000 0.000000 0.000000
vn 1.000000 0.000000 0.000000
vn 1.000000 0.000000 0.000000
vn -1.000000 0.000000 0.000000
vn -1.000000 0.000000 0.000000
vn -1.000000 0.000000 0.000000
vn -1.000000 0.000000 0.000000
s off
f 9/15/25 10/16/26 12/18/27 11/17/28
f 11/17/29 12/18/30 14/20/31 13/19/32
f 13/19/33 14/20/34 16/22/35 15/21/36
f 15/21/37 16/22/38 10/24/39 9/23/40
f 10/16/41 16/25/42 14/26/43 12/18/44
f 15/27/45 9/15/46 11/17/47 13/28/48
v 26.080902 -0.791221 33.700000
v 26.030902 -0.754894 33.700000
v 25.969098 -0.754894 33.700000
v 25.919098 -0.791221 33.700000
v 25.900000 -0.850000 33.700000
v 25.919098 -0.908779 33.700000
v 25.969098 -0.945106 33.700000
v 26.030902 -0.945106 33.700000
v 26.080902 -0.908779 33.700000
v 26.100000 -0.850000 33.700000
v 26.080902 -0.791221 34.700000
v 26.030902 -0.754894 34.700000
v 25.969098 -0.754894 34.700000
v 25.919098 -0.791221 34.700000
v 25.900000 -0.850000 34.700000
v 25.919098 -0.908779 34.700000
v 25.969098 -0.945106 34.700000
v 26.030902 -0.945106 34.700000
v 26.080902 -0.908779 34.700000
v 26.100000 -0.850000 34.700000
v 26.000000 -0.850000 33.700000
v 26.000000 -0.850000 34.700000
vt 0.289682 0.746052
vt 0.211557 0.689291
vt 0.114989 0.689291
vt 0.036864 0.746052
vt 0.007023 0.837894
vt 0.036864 0.929735
vt 0.114989 0.986496
vt 0.211557 0.986496
vt 0.289682 0.929735
vt 0.319523 0.837894
vt 0.748240 0.620829
vt 0.773240 0.620829
vt 0.798240 0.620829
vt 0.823240 0.620829
vt 0.848240 0.620829
vt 0.873240 0.620829
vt 0.898240 0.620829
vt 0.923240 0.620829
vt 0.948240 0.620829
vt 0.973240 0.620829
vt 0.998240 0.620829
vt 0.748240 0.996768
vt 0.773240 0.996768
vt 0.798240 0.996768
vt 0.823240 0.996768
vt 0.848240 0.996768
vt 0.873240 0.996768
vt 0.898240 0.996768
vt 0.923240 0.996768
vt 0.948240 0.996768
vt 0.973240 0.996768
vt 0.998240 0.996768
vt 0.926409 0.714409
vt 0.848284 0.657647
vt 0.751716 0.657647
vt 0.673591 0.714409
vt 0.643750 0.806250
vt 0.673591 0.898091
vt 0.751716 0.954853
vt 0.848284 0.954853
vt 0.926409 0.898091
vt 0.956250 0.806250
vt 0.163273 0.831644
vt 0.800000 0.800000
vn 0.587785 0.809017 -0.000000
vn 0.587785 0.809017 -0.000000
vn 0.587785 0.809017 -0.000000
vn 0.587785 0.809017 -0.000000
vn -0.000000 1.000000 -0.000000
vn -0.000000 1.000000 -0.000000
vn -0.000000 1.000000 -0.000000
vn -0.000000 1.000000 -0.000000
vn -0.587785 0.809017 -0.000000
vn -0.587785 0.809017 -0.000000
vn -0.587785 0.809017 -0.000000
vn -0.587785 0.809017 -0.000000
vn -0.951057 0.309017 -0.000000
vn -0.951057 0.309017 -0.000000
vn -0.951057 0.309017 -0.000000
vn -0.951057 0.309017 -0.000000
vn -0.951056 -0.309017 0.000000
vn -0.951056 -0.309017 0.000000
vn -0.951056 -0.309017 0.000000
vn -0.951056 -0.309017 0.000000
vn -0.587785 -0.809017 0.000000
vn -0.587785 -0.809017 0.000000
vn -0.587785 -0.809017 0.000000
vn -0.587785 -0.809017 0.000000
vn 0.000000 -1.000000 0.000000
vn 0.000000 -1.000000 0.000000
vn 0.000000 -1.000000 0.000000
vn 0.000000 -1.000000 0.000000
vn 0.587785 -0.809017 0.000000
vn 0.587785 -0.809017 0.000000
vn 0.587785 -0.809017 0.000000
vn 0.587785 -0.809017 0.000000
vn 0.951057 -0.309017 0.000000
vn 0.951057 -0.309017 0.000000
vn 0.951057 -0.309017 0.000000
vn 0.951057 -0.309017 0.000000
vn 0.951057 0.309017 -0.000000
vn 0.951057 0.309017 -0.000000
vn 0.951057 0.309017 -0.000000
vn 0.951057 0.309017 -0.000000
vn 0.000000 -0.000000 -1.000000
vn 0.000000 -0.000000 -1.000000
vn 0.000000 -0.000000 -1.000000
vn 0.000000 0.000000 -1.000000
vn 0.000000 -0.000000 -1.000000
vn 0.000000 -0.000000 -1.000000
vn 0.000000 -0.000000 -1.000000
vn 0.000000 -0.000000 -1.000000
vn 0.000000 -0.000000 -1.000000
vn 0.000000 -0.000000 -1.000000
vn 0.000000 -0.000000 -1.000000
vn 0.000000 0.000000 1.000000
vn 0.000000 0.000000 1.000000
vn 0.000000 0.000000 1.000000
vn 0.000000 0.000000 1.000000
vn 0.000000 0.000000 1.000000
vn 0.000000 0.000000 1.000000
vn 0.000000 0.000000 1.000000
vn 0.000000 -0.000000 1.000000
vn 0.000000 -0.000000 1.000000
vn 0.000000 0.000000 1.000000
vn 0.000000 0.000000 1.000000
s off
f 17/39/49 18/40/50 28/51/51 27/50/52
f 18/40/53 19/41/54 29/52/55 28/51/56
f 19/41/57 20/42/58 30/53/59 29/52/60
f 20/42/61 21/43/62 31/54/63 30/53/64
f 21/43/65 22/44/66 32/55/67 31/54/68
f 22/44/69 23/45/70 33/56/71 32/55/72
f 23/45/73 24/46/74 34/57/75 33/56/76
f 24/46/77 25/47/78 35/58/79 34/57/80
f 25/47/81 26/48/82 36/59/83 35/58/84
f 26/48/85 17/49/86 27/60/87 36/59/88
s 1
f 18/30/89 17/29/90 37/71/91
f 19/31/92 18/30/89 37/71/91
f 20/32/93 19/31/92 37/71/91
f 21/33/94 20/32/93 37/71/91
f 22/34/95 21/33/94 37/71/91
f 23/35/96 22/34/95 37/71/91
f 24/36/97 23/35/96 37/71/91
f 25/37/98 24/36/97 37/71/91
f 26/38/99 25/37/98 37/71/91
f 17/29/90 26/38/99 37/71/91
s 2
f 27/69/100 28/68/101 38/72/102
f 28/68/101 29/67/103 38/72/102
f 29/67/103 30/66/104 38/72/102
f 30/66/104 31/65/105 38/72/102
f 31/65/105 32/64/106 38/72/102
f 32/64/106 33/63/107 38/72/102
f 33/63/107 34/62/108 38/72/102
f 34/62/108 35/61/109 38/72/102
f 35/61/109 36/70/110 38/72/102
f 36/70/110 27/69/100 38/72/102
v 22.080902 -0.791221 33.700000
v 22.030902 -0.754894 33.700000
v 21.969098 -0.754894 33.700000
v 21.919098 -0.791221 33.700000
v 21.900000 -0.850000 33.700000
v 21.919098 -0.908779 33.700000
v 21.969098 -0.945106 33.700000
v 22.030902 -0.945106 33.700000
v 22.080902 -0.908779 33.700000
v 22.100000 -0.850000 33.700000
v 22.080902 -0.791221 34.700000
v 22.030902 -0.754894 34.700000
v 21.969098 -0.754894 34.700000
v 21.919098 -0.791221 34.700000
v 21.900000 -0.850000 34.700000
v 21.919098 -0.908779 34.700000
v 21.969098 -0.945106 34.700000
v 22.030902 -0.945106 34.700000
v 22.080902 -0.908779 34.700000
v 22.100000 -0.850000 34.700000
v 22.000000 -0.850000 33.700000
v 22.000000 -0.850000 34.700000
vt 0.289682 0.746052
vt 0.211557 0.689291
vt 0.114989 0.689291
vt 0.036864 0.746052
vt 0.007023 0.837894
vt 0.036864 0.929735
vt 0.114989 0.986496
vt 0.211557 0.986496
vt 0.289682 0.929735
vt 0.319523 0.837894
vt 0.748240 0.620829
vt 0.773240 0.620829
vt 0.798240 0.620829
vt 0.823240 0.620829
vt 0.848240 0.620829
vt 0.873240 0.620829
vt 0.898240 0.620829
vt 0.923240 0.620829
vt 0.948240 0.620829
vt 0.973240 0.620829
vt 0.998240 0.620829
vt 0.748240 0.996768
vt 0.773240 0.996768
vt 0.798240 0.996768
vt 0.823240 0.996768
vt 0.848240 0.996768
vt 0.873240 0.996768
vt 0.898240 0.996768
vt 0.923240 0.996768
vt 0.948240 0.996768
vt 0.973240 0.996768
vt 0.998240 0.996768
vt 0.926409 0.714409
vt 0.848284 0.657647
vt 0.751716 0.657647
vt 0.673591 0.714409
vt 0.643750 0.806250
vt 0.673591 0.898091
vt 0.751716 0.954853
vt 0.848284 0.954853
vt 0.926409 0.898091
vt 0.956250 0.806250
vt 0.163273 0.831644
vt 0.800000 0.800000
vn 0.587785 0.809017 -0.000000
vn 0.587785 0.809017 -0.000000
vn 0.587785 0.809017 -0.000000
vn 0.587785 0.809017 -0.000000
vn -0.000000 1.000000 -0.000000
vn -0.000000 1.000000 -0.000000
vn -0.000000 1.000000 -0.000000
vn -0.000000 1.000000 -0.000000
vn -0.587785 0.809017 -0.000000
vn -0.587785 0.809017 -0.000000
vn -0.587785 0.809017 -0.000000
vn -0.587785 0.809017 -0.000000
vn -0.951057 0.309017 -0.000000
vn -0.951057 0.309017 -0.000000
vn -0.951057 0.309017 -0.000000
vn -0.951057 0.309017 -0.000000
vn -0.951056 -0.309017 0.000000
vn -0.951056 -0.309017 0.000000
vn -0.951056 -0.309017 0.000000
vn -0.951056 -0.309017 0.000000
vn -0.587785 -0.809017 0.000000
vn -0.587785 -0.809017 0.000000
vn -0.587785 -0.809017 0.000000
vn -0.587785 -0.809017 0.000000
vn 0.000000 -1.000000 0.000000
vn 0.000000 -1.000000 0.000000
vn 0.000000 -1.000000 0.000000
vn 0.000000 -1.000000 0.000000
vn 0.587785 -0.809017 0.000000
vn 0.587785 -0.809017 0.000000
vn 0.587785 -0.809017 0.000000
vn 0.587785 -0.809017 0.000000
vn 0.951057 -0.309017 0.000000
vn 0.951057 -0.309017 0.000000
vn 0.951057 -0.309017 0.000000
vn 0.951057 -0.309017 0.000000
vn 0.951057 0.309017 -0.000000
vn 0.951057 0.309017 -0.000000
vn 0.951057 0.309017 -0.000000
vn 0.951057 0.309017 -0.000000
vn 0.000000 -0.000000 -1.000000
vn 0.000000 -0.000000 -1.000000
vn 0.000000 -0.000000 -1.000000
vn 0.000000 0.000000 -1.000000
vn 0.000000 -0.000000 -1.000000
vn 0.000000 -0.000000 -1.000000
vn 0.000000 -0.000000 -1.000000
vn 0.000000 -0.000000 -1.000000
vn 0.000000 -0.000000 -1.000000
vn 0.000000 -0.000000 -1.000000
vn 0.000000 -0.000000 -1.000000
vn 0.000000 0.000000 1.000000
vn 0.000000 0.000000 1.000000
vn 0.000000 0.000000 1.000000
vn 0.000000 0.000000 1.000000
vn 0.000000 0.000000 1.000000
vn 0.000000 0.000000 1.000000
vn 0.000000 0.000000 1.000000
vn 0.000000 -0.000000 1.000000
vn 0.000000 -0.000000 1.000000
vn 0.000000 0.000000 1.000000
vn 0.000000 0.000000 1.000000
s off
f 39/83/111 40/84/112 50/95/113 49/94/114
f 40/84/115 41/85/116 51/96/117 50/95/118
f 41/85/119 42/86/120 52/97/121 51/96/122
f 42/86/123 43/87/124 53/98/125 52/97/126
f 43/87/127 44/88/128 54/99/129 53/98/130
f 44/88/131 45/89/132 55/100/133 54/99/134
f 45/89/135 46/90/136 56/101/137 55/100/138
f 46/90/139 47/91/140 57/102/141 56/101/142
f 47/91/143 48/92/144 58/103/145 57/102/146
f 48/92/147 39/93/148 49/104/149 58/103/150
s 1
f 40/74/151 39/73/152 59/115/153
f 41/75/154 40/74/151 59/115/153
f 42/76/155 41/75/154 59/115/153
f 43/77/156 42/76/155 59/115/153
f 44/78/157 43/77/156 59/115/153
f 45/79/158 44/78/157 59/115/153
f 46/80/159 45/79/158 59/115/153
f 47/81/160 46/80/159 59/115/153
f 48/82/161 47/81/160 59/115/153
f 39/73/152 48/82/161 59/115/153
s 2
f 49/113/162 50/112/163 60/116/164
f 50/112/163 51/111/165 60/116/164
f 51/111/165 52/110/166 60/116/164
f 52/110/166 53/109/167 60/116/164
f 53/109/167 54/108/168 60/116/164
f 54/108/168 55/107/169 60/116/164
f 55/107/169 56/106/170 60/116/164
f 56/106/170 57/105/171 60/116/164
f 57/105/171 58/114/172 60/116/164
f 58/114/172 49/113/162 60/116/164
v 22.080902 4.958779 33.700000
v 22.030902 4.995106 33.700000
v 21.969098 4.995106 33.700000
v 21.919098 4.958779 33.700000
v 21.900000 4.900000 33.700000
v 21.919098 4.841221 33.700000
v 21.969098 4.804894 33.700000
v 22.030902 4.804894 33.700000
v 22.080902 4.841221 33.700000
v 22.100000 4.900000 33.700000
v 22.080902 4.958779 34.700000
v 22.030902 4.995106 34.700000
v 21.969098 4.995106 34.700000
v 21.919098 4.958779 34.700000
v 21.900000 4.900000 34.700000
v 21.919098 4.841221 34.700000
v 21.969098 4.804894 34.700000
v 22.030902 4.804894 34.700000
v 22.080902 4.841221 34.700000
v 22.100000 4.900000 34.700000
v 22.000000 4.900000 33.700000
v 22.000000 4.900000 34.700000
vt 0.289682 0.746052
vt 0.211557 0.689291
vt 0.114989 0.689291
vt 0.036864 0.746052
vt 0.007023 0.837894
vt 0.036864 0.929735
vt 0.114989 0.986496
vt 0.211557 0.986496
vt 0.289682 0.929735
vt 0.319523 0.837894
vt 0.748240 0.620829
vt 0.773240 0.620829
vt 0.798240 0.620829
vt 0.823240 0.620829
vt 0.848240 0.620829
vt 0.873240 0.620829
vt 0.898240 0.620829
vt 0.923240 0.620829
vt 0.948240 0.620829
vt 0.973240 0.620829
vt 0.998240 0.620829
vt 0.748240 0.996768
vt 0.773240 0.996768
vt 0.798240 0.996768
vt 0.823240 0.996768
vt 0.848240 0.996768
vt 0.873240 0.996768
vt 0.898240 0.996768
vt 0.923240 0.996768
vt 0.948240 0.996768
vt 0.973240 0.996768
vt 0.998240 0.996768
vt 0.926409 0.714409
vt 0.848284 0.657647
vt 0.751716 0.657647
vt 0.673591 0.714409
vt 0.643750 0.806250
vt 0.673591 0.898091
vt 0.751716 0.954853
vt 0.848284 0.954853
vt 0.926409 0.898091
vt 0.956250 0.806250
vt 0.163273 0.831644
vt 0.800000 0.800000
vn 0.587785 0.809017 -0.000000
vn 0.587785 0.809017 -0.000000
vn 0.587785 0.809017 -0.000000
vn 0.587785 0.809017 -0.000000
vn -0.000000 1.000000 -0.000000
vn -0.000000 1.000000 -0.000000
vn -0.000000 1.000000 -0.000000
vn -0.000000 1.000000 -0.000000
vn -0.587785 0.809017 -0.000000
vn -0.587785 0.809017 -0.000000
vn -0.587785 0.809017 -0.000000
vn -0.587785 0.809017 -0.000000
vn -0.951057 0.309017 -0.000000
vn -0.951057 0.309017 -0.000000
vn -0.951057 0.309017 -0.000000
vn -0.951057 0.309017 -0.000000
vn -0.951056 -0.309017 0.000000
vn -0.951056 -0.309017 0.000000
vn -0.951056 -0.309017 0.000000
vn -0.951056 -0.309017 0.000000
vn -0.587785 -0.809017 0.000000
vn -0.587785 -0.809017 0.000000
vn -0.587785 -0.809017 0.000000
vn -0.587785 -0.809017 0.000000
vn 0.000000 -1.000000 0.000000
vn 0.000000 -1.000000 0.000000
vn 0.000000 -1.000000 0.000000
vn 0.000000 -1.000000 0.000000
vn 0.587785 -0.809017 0.000000
vn 0.587785 -0.809017 0.000000
vn 0.587785 -0.809017 0.000000
vn 0.587785 -0.809017 0.000000
vn 0.951057 -0.309017 0.000000
vn 0.951057 -0.309017 0.000000
vn 0.951057 -0.309017 0.000000
vn 0.951057 -0.309017 0.000000
vn 0.951057 0.309017 -0.000000
vn 0.951057 0.309017 -0.000000
vn 0.951057 0.309017 -0.000000
vn 0.951057 0.309017 -0.000000
vn 0.000000 -0.000000 -1.000000
vn 0.000000 -0.000000 -1.000000
vn 0.000000 -0.000000 -1.000000
vn 0.000000 0.000000 -1.000000
vn 0.000000 -0.000000 -1.000000
vn 0.000000 -0.000000 -1.000000
vn 0.000000 -0.000000 -1.000000
vn 0.000000 -0.000000 -1.000000
vn 0.000000 -0.000000 -1.000000
vn 0.000000 -0.000000 -1.000000
vn 0.000000 -0.000000 -1.000000
vn 0.000000 0.000000 1.000000
vn 0.000000 0.000000 1.000000
vn 0.000000 0.000000 1.000000
vn 0.000000 0.000000 1.000000
vn 0.000000 0.000000 1.000000
vn 0.000000 0.000000 1.000000
vn 0.000000 0.000000 1.000000
vn 0.000000 -0.000000 1.000000
vn 0.000000 -0.000000 1.000000
vn 0.000000 0.000000 1.000000
vn 0.000000 0.000000 1.000000
s off
f 61/127/173 62/128/174 72/139/175 71/138/176
f 62/128/177 63/129/178 73/140/179 72/139/180
f 63/129/181 64/130/182 74/141/183 73/140/184
f 64/130/185 65/131/186 75/142/187 74/141/188
f 65/131/189 66/132/190 76/143/191 75/142/192
f 66/132/193 67/133/194 77/144/195 76/143/196
f 67/133/197 68/134/198 78/145/199 77/144/200
f 68/134/201 69/135/202 79/146/203 78/145/204
f 69/135/205 70/136/206 80/147/207 79/146/208
f 70/136/209 61/137/210 71/148/211 80/147/212
s 1
f 62/118/213 61/117/214 81/159/215
f 63/119/216 62/118/213 81/159/215
f 64/120/217 63/119/216 81/159/215
f 65/121/218 64/120/217 81/159/215
f 66/122/219 65/121/218 81/159/215
f 67/123/220 66/122/219 81/159/215
f 68/124/221 67/123/220 81/159/215
f 69/125/222 68/124/221 81/159/215
f 70/126/223 69/125/222 81/159/215
f 61/117/214 70/126/223 81/159/215
s 2
f 71/157/224 72/156/225 82/160/226
f 72/156/225 73/155/227 82/160/226
f 73/155/227 74/154/228 82/160/226
f 74/154/228 75/153/229 82/160/226
f 75/153/229 76/152/230 82/160/226
f 76/152/230 77/151/231 82/160/226
f 77/151/231 78/150/232 82/160/226
f 78/150/232 79/149/233 82/160/226
f 79/149/233 80/158/234 82/160/226
f 80/158/234 71/157/224 82/160/226
v 26.080902 4.958779 33.700000
v 26.030902 4.995106 33.700000
v 25.969098 4.995106 33.700000
v 25.919098 4.958779 33.700000
v 25.900000 4.900000 33.700000
v 25.919098 4.841221 33.700000
v 25.969098 4.804894 33.700000
v 26.030902 4.804894 33.700000
v 26.080902 4.841221 33.700000
v 26.100000 4.900000 33.700000
v 26.080902 4.958779 34.700000
v 26.030902 4.995106 34.700000
v 25.969098 4.995106 34.700000
v 25.919098 4.958779 34.700000
v 25.900000 4.900000 34.700000
v 25.919098 4.841221 34.700000
v 25.969098 4.804894 34.700000
v 26.030902 4.804894 34.700000
v 26.080902 4.841221 34.700000
v 26.100000 4.900000 34.700000
v 26.000000 4.900000 33.700000
v 26.000000 4.900000 34.700000
vt 0.289682 0.746052
vt 0.211557 0.689291
vt 0.114989 0.689291
vt 0.036864 0.746052
vt 0.007023 0.837894
vt 0.036864 0.929735
vt 0.114989 0.986496
vt 0.211557 0.986496
vt 0.289682 0.929735
vt 0.319523 0.837894
vt 0.748240 0.620829
vt 0.773240 0.620829
vt 0.798240 0.620829
vt 0.823240 0.620829
vt 0.848240 0.620829
vt 0.873240 0.620829
vt 0.898240 0.620829
vt 0.923240 0.620829
vt 0.948240 0.620829
vt 0.973240 0.620829
vt 0.998240 0.620829
vt 0.748240 0.996768
vt 0.773240 0.996768
vt 0.798240 0.996768
vt 0.823240 0.996768
vt 0.848240 0.996768
vt 0.873240 0.996768
vt 0.898240 0.996768
vt 0.923240 0.996768
vt 0.948240 0.996768
vt 0.973240 0.996768
vt 0.998240 0.996768
vt 0.926409 0.714409
vt 0.848284 0.657647
vt 0.751716 0.657647
vt 0.673591 0.714409
vt 0.643750 0.806250
vt 0.673591 0.898091
vt 0.751716 0.954853
vt 0.848284 0.954853
vt 0.926409 0.898091
vt 0.956250 0.806250
vt 0.163273 0.831644
vt 0.800000 0.800000
vn 0.587785 0.809017 -0.000000
vn 0.587785 0.809017 -0.000000
vn 0.587785 0.809017 -0.000000
vn 0.587785 0.809017 -0.000000
vn -0.000000 1.000000 -0.000000
vn -0.000000 1.000000 -0.000000
vn -0.000000 1.000000 -0.000000
vn -0.000000 1.000000 -0.000000
vn -0.587785 0.809017 -0.000000
vn -0.587785 0.809017 -0.000000
vn -0.587785 0.809017 -0.000000
vn -0.587785 0.809017 -0.000000
vn -0.951057 0.309017 -0.000000
vn -0.951057 0.309017 -0.000000
vn -0.951057 0.309017 -0.000000
vn -0.951057 0.309017 -0.000000
vn -0.951056 -0.309017 0.000000
vn -0.951056 -0.309017 0.000000
vn -0.951056 -0.309017 0.000000
vn -0.951056 -0.309017 0.000000
vn -0.587785 -0.809017 0.000000
vn -0.587785 -0.809017 0.000000
vn -0.587785 -0.809017 0.000000
vn -0.587785 -0.809017 0.000000
vn 0.000000 -1.000000 0.000000
vn 0.000000 -1.000000 0.000000
vn 0.000000 -1.000000 0.000000
vn 0.000000 -1.000000 0.000000
vn 0.587785 -0.809017 0.000000
vn 0.587785 -0.809017 0.000000
vn 0.587785 -0.809017 0.000000
vn 0.587785 -0.809017 0.000000
vn 0.951057 -0.309017 0.000000
vn 0.951057 -0.309017 0.000000
vn 0.951057 -0.309017 0.000000
vn 0.951057 -0.309017 0.000000
vn 0.951057 0.309017 -0.000000
vn 0.951057 0.309017 -0.000000
vn 0.951057 0.309017 -0.000000
vn 0.951057 0.309017 -0.000000
vn 0.000000 -0.000000 -1.000000
vn 0.000000 -0.000000 -1.000000
vn 0.000000 -0.000000 -1.000000
vn 0.000000 0.000000 -1.000000
vn 0.000000 -0.000000 -1.000000
vn 0.000000 -0.000000 -1.000000
vn 0.000000 -0.000000 -1.000000
vn 0.000000 -0.000000 -1.000000
vn 0.000000 -0.000000 -1.000000
vn 0.000000 -0.000000 -1.000000
vn 0.000000 -0.000000 -1.000000
vn 0.000000 0.000000 1.000000
vn 0.000000 0.000000 1.000000
vn 0.000000 0.000000 1.000000
vn 0.000000 0.000000 1.000000
vn 0.000000 0.000000 1.000000
vn 0.000000 0.000000 1.000000
vn 0.000000 0.000000 1.000000
vn 0.000000 -0.000000 1.000000
vn 0.000000 -0.000000 1.000000
vn 0.000000 0.000000 1.000000
vn 0.000000 0.000000 1.000000
s off
f 83/171/235 84/172/236 94/183/237 93/182/238
f 84/172/239 85/173/240 95/184/241 94/183/242
f 85/173/243 86/174/244 96/185/245 95/184/246
f 86/174/247 87/175/248 97/186/249 96/185/250
f 87/175/251 88/176/252 98/187/253 97/186/254
f 88/176/255 89/177/256 99/188/257 98/187/258
f 89/177/259 90/178/260 100/189/261 99/188/262
f 90/178/263 91/179/264 101/190/265 100/189/266
f 91/179/267 92/180/268 102/191/269 101/190/270
f 92/180/271 83/181/272 93/192/273 102/191/274
s 1
f 84/162/275 83/161/276 103/203/277
f 85/163/278 84/162/275 103/203/277
f 86/164/279 85/163/278 103/203/277
f 87/165/280 86/164/279 103/203/277
f 88/166/281 87/165/280 103/203/277
f 89/167/282 88/166/281 103/203/277
f 90/168/283 89/167/282 103/203/277
f 91/169/284 90/168/283 103/203/277
f 92/170/285 91/169/284 103/203/277
f 83/161/276 92/170/285 103/203/277
s 2
f 93/201/286 94/200/287 104/204/288
f 94/200/287 95/199/289 104/204/288
f 95/199/289 96/198/290 104/204/288
f 96/198/290 97/197/291 104/204/288
f 97/197/291 98/196/292 104/204/288
f 98/196/292 99/195/293 104/204/288
f 99/195/293 100/194/294 104/204/288
f 100/194/294 101/193/295 104/204/288
f 101/193/295 102/202/296 104/204/288
f 102/202/296 93/201/286 104/204/288
