# This file uses centimeters as units for non-parametric coordinates.

v 21.500000 -1.500000 35.000000
v 26.500000 -1.500000 35.000000
v 21.500000 5.500000 35.000000
v 26.500000 5.500000 35.000000
v 21.500000 5.500000 34.000000
v 26.500000 5.500000 34.000000
v 21.500000 -1.500000 34.000000
v 26.500000 -1.500000 34.000000
vt 0.082899 0.071673
vt 0.119233 0.073025
vt 0.080519 0.098526
vt 0.117486 0.099287
vt 0.080364 0.125577
vt 0.117205 0.125915
vt 0.082434 0.152825
vt 0.118388 0.152909
vt 0.086731 0.180270
vt 0.121036 0.180270
vt 0.152862 0.077082
vt 0.153750 0.102809
vt 0.043861 0.073025
vt 0.042847 0.100527
vn 0.000000 0.000000 1.000000
vn 0.000000 0.000000 1.000000
vn 0.000000 0.000000 1.000000
vn 0.000000 0.000000 1.000000
vn 0.000000 1.000000 0.000000
vn 0.000000 1.000000 0.000000
vn 0.000000 1.000000 0.000000
vn 0.000000 1.000000 0.000000
vn 0.000000 0.000000 -1.000000
vn 0.000000 0.000000 -1.000000
vn 0.000000 0.000000 -1.000000
vn 0.000000 0.000000 -1.000000
vn 0.000000 -1.000000 0.000000
vn 0.000000 -1.000000 0.000000
vn 0.000000 -1.000000 0.000000
vn 0.000000 -1.000000 0.000000
vn 1.000000 0.000000 0.000000
vn 1.000000 0.000000 0.000000
vn 1.000000 0.000000 0.000000
vn 1.000000 0.000000 0.000000
vn -1.000000 0.000000 0.000000
vn -1.000000 0.000000 0.000000
vn -1.000000 0.000000 0.000000
vn -1.000000 0.000000 0.000000
s off
f 1/1/1 2/2/2 4/4/3 3/3/4
f 3/3/5 4/4/6 6/6/7 5/5/8
f 5/5/9 6/6/10 8/8/11 7/7/12
f 7/7/13 8/8/14 2/10/15 1/9/16
f 2/2/17 8/11/18 6/12/19 4/4/20
f 7/13/21 1/1/22 3/3/23 5/14/24
v 21.750000 -1.150000 34.849615
v 26.250000 -1.150000 34.849615
v 21.750000 5.150000 34.849615
v 26.250000 5.150000 34.849615
v 21.750000 5.150000 33.849615
v 26.250000 5.150000 33.849615
v 21.750000 -1.150000 33.849615
v 26.250000 -1.150000 33.849615
vt 0.350000 -0.000000
vt 0.550000 -0.000000
vt 0.250000 0.050000
vt 0.650000 0.050000
vt 0.250000 0.100000
vt 0.650000 0.100000
vt 0.250000 0.700000
vt 0.650000 0.700000
vt 0.350000 0.800000
vt 0.600000 0.800000
vt 0.750000 -0.000000
vt 0.750000 0.050000
vt 0.150000 -0.000000
vt 0.150000 0.050000
vn 0.000000 0.000000 1.000000
vn 0.000000 0.000000 1.000000
vn 0.000000 0.000000 1.000000
vn 0.000000 0.000000 1.000000
vn 0.000000 1.000000 0.000000
vn 0.000000 1.000000 0.000000
vn 0.000000 1.000000 0.000000
vn 0.000000 1.000000 0.000000
vn 0.000000 0.000000 -1.000000
vn 0.000000 0.000000 -1.000000
vn 0.000000 0.000000 -1.000000
vn 0.000000 0.000000 -1.000000
vn 0.000000 -1.000000 0.000000
vn 0.000000 -1.000000 0.000000
vn 0.000000 -1.000000 0.000000
vn 0.000000 -1.000000 0.000000
vn 1.000000 0.000000 0.000000
vn 1.000000 0.000000 0.000000
vn 1.000000 0.000000 0.000000
vn 1.000000 0.000000 0.000000
vn -1.000000 0.000000 0.000000
vn -1.000000 0.000000 0.000000
vn -1.000000 0.000000 0.000000
vn -1.000000 0.000000 0.000000
s off
f 9/15/25 10/16/26 12/18/27 11/17/28
f 11/17/29 12/18/30 14/20/31 13/19/32
f 13/19/33 14/20/34 16/22/35 15/21/36
f 15/21/37 16/22/38 10/24/39 9/23/40
f 10/16/41 16/25/42 14/26/43 12/18/44
f 15/27/45 9/15/46 11/17/47 13/28/48
