# This file uses centimeters as units for non-parametric coordinates.

v 0.606763 0.000000 -0.440839
v 0.231763 0.000000 -0.713293
v -0.231763 0.000000 -0.713292
v -0.606763 0.000000 -0.440839
v -0.750000 0.000000 0.000000
v -0.606763 0.000000 0.440839
v -0.231763 0.000000 0.713292
v 0.231763 0.000000 0.713292
v 0.606763 0.000000 0.440839
v 0.750000 0.000000 0.000000
v 0.606763 0.200000 -0.440839
v 0.231763 0.200000 -0.713293
v -0.231763 0.200000 -0.713292
v -0.606763 0.200000 -0.440839
v -0.750000 0.200000 0.000000
v -0.606763 0.200000 0.440839
v -0.231763 0.200000 0.713292
v 0.231763 0.200000 0.713292
v 0.606763 0.200000 0.440839
v 0.750000 0.200000 0.000000
v 0.000000 0.000000 0.000000
v 0.000000 0.200000 0.000000
v 0.085701 0.167210 -0.262266
v 0.032735 0.167210 -0.300748
v -0.032735 0.167210 -0.300748
v -0.085701 0.167210 -0.262266
v -0.105933 0.167210 -0.200000
v -0.085701 0.167210 -0.137734
v -0.032735 0.167210 -0.099252
v 0.032735 0.167210 -0.099252
v 0.085701 0.167210 -0.137734
v 0.105933 0.167210 -0.200000
v 0.085701 0.531091 -0.500784
v 0.032735 0.498635 -0.521461
v -0.032735 0.498635 -0.521461
v -0.085701 0.531091 -0.500784
v -0.105933 0.583605 -0.467329
v -0.085701 0.636120 -0.433873
v -0.032735 0.668575 -0.413197
v 0.032735 0.668575 -0.413197
v 0.085701 0.636120 -0.433873
v 0.105933 0.583605 -0.467329
v 0.085701 1.000000 -0.705576
v 0.032735 1.000000 -0.744058
v -0.032735 1.000000 -0.744058
v -0.085701 1.000000 -0.705576
v -0.105933 1.000000 -0.643310
v -0.085701 1.000000 -0.581045
v -0.032735 1.000000 -0.542562
v 0.032735 1.000000 -0.542562
v 0.085701 1.000000 -0.581045
v 0.105933 1.000000 -0.643310
v 0.085701 1.469293 -0.509522
v 0.032735 1.501986 -0.529821
v -0.032735 1.501986 -0.529821
v -0.085701 1.469293 -0.509522
v -0.105933 1.416395 -0.476678
v -0.085701 1.363496 -0.443833
v -0.032735 1.330804 -0.423534
v 0.032735 1.330803 -0.423534
v 0.085701 1.363497 -0.443833
v 0.105933 1.416395 -0.476678
v 0.085701 1.894587 -0.125649
v 0.032735 1.932780 -0.130358
v -0.032735 1.932780 -0.130358
v -0.085701 1.894587 -0.125649
v -0.105933 1.832789 -0.118030
v -0.085701 1.770992 -0.110412
v -0.032735 1.732799 -0.105703
v 0.032735 1.732799 -0.105703
v 0.085701 1.770992 -0.110412
v 0.105933 1.832790 -0.118030
v 0.000000 0.167210 -0.200000
v 0.000000 1.832790 -0.118030
v 0.404509 0.887614 0.348552
v 0.154508 0.754787 0.224664
v -0.154509 0.754788 0.224664
v -0.404509 0.887614 0.348552
v -0.500000 1.102533 0.549010
v -0.404509 1.317451 0.749466
v -0.154508 1.450277 0.873356
v 0.154509 1.450277 0.873356
v 0.404509 1.317451 0.749466
v 0.500000 1.102533 0.549010
v 0.136026 1.748906 -0.285152
v 0.051957 1.705391 -0.325739
v -0.051957 1.705391 -0.325739
v -0.136026 1.748906 -0.285152
v -0.168137 1.819314 -0.219483
v -0.136026 1.889721 -0.153812
v -0.051957 1.933236 -0.113225
v 0.051957 1.933236 -0.113225
v 0.136026 1.889721 -0.153812
v 0.168137 1.819314 -0.219483
v 0.000000 1.819314 -0.219483
vt 0.375000 0.312500
vt 0.400000 0.312500
vt 0.400000 0.688440
vt 0.375000 0.688440
vt 0.425000 0.312500
vt 0.425000 0.688440
vt 0.450000 0.312500
vt 0.450000 0.688440
vt 0.475000 0.312500
vt 0.475000 0.688440
vt 0.500000 0.312500
vt 0.500000 0.688440
vt 0.525000 0.312500
vt 0.525000 0.688440
vt 0.550000 0.312500
vt 0.550000 0.688440
vt 0.575000 0.312500
vt 0.575000 0.688440
vt 0.600000 0.312500
vt 0.600000 0.688440
vt 0.625000 0.312500
vt 0.625000 0.688440
vt 0.548284 0.007647
vt 0.626409 0.064409
vt 0.500000 0.150000
vt 0.451716 0.007647
vt 0.373591 0.064409
vt 0.343750 0.156250
vt 0.373591 0.248091
vt 0.451716 0.304853
vt 0.548284 0.304853
vt 0.626409 0.248091
vt 0.656250 0.156250
vt 0.626409 0.935591
vt 0.548284 0.992353
vt 0.500000 0.837500
vt 0.451716 0.992353
vt 0.373591 0.935591
vt 0.343750 0.843750
vt 0.373591 0.751909
vt 0.451716 0.695147
vt 0.548284 0.695147
vt 0.626409 0.751909
vt 0.656250 0.843750
vt 0.375000 0.312500
vt 0.400000 0.312500
vt 0.400000 0.406485
vt 0.375000 0.406485
vt 0.425000 0.312500
vt 0.425000 0.406485
vt 0.450000 0.312500
vt 0.450000 0.406485
vt 0.475000 0.312500
vt 0.475000 0.406485
vt 0.500000 0.312500
vt 0.500000 0.406485
vt 0.525000 0.312500
vt 0.525000 0.406485
vt 0.550000 0.312500
vt 0.550000 0.406485
vt 0.575000 0.312500
vt 0.575000 0.406485
vt 0.600000 0.312500
vt 0.600000 0.406485
vt 0.625000 0.312500
vt 0.625000 0.406485
vt 0.400000 0.500470
vt 0.375000 0.500470
vt 0.425000 0.500470
vt 0.450000 0.500470
vt 0.475000 0.500470
vt 0.500000 0.500470
vt 0.525000 0.500470
vt 0.550000 0.500470
vt 0.575000 0.500470
vt 0.600000 0.500470
vt 0.625000 0.500470
vt 0.400000 0.594455
vt 0.375000 0.594455
vt 0.425000 0.594455
vt 0.450000 0.594455
vt 0.475000 0.594455
vt 0.500000 0.594455
vt 0.525000 0.594455
vt 0.550000 0.594455
vt 0.575000 0.594455
vt 0.600000 0.594455
vt 0.625000 0.594455
vt 0.400000 0.688440
vt 0.375000 0.688440
vt 0.425000 0.688440
vt 0.450000 0.688440
vt 0.475000 0.688440
vt 0.500000 0.688440
vt 0.525000 0.688440
vt 0.550000 0.688440
vt 0.575000 0.688440
vt 0.600000 0.688440
vt 0.625000 0.688440
vt 0.548284 0.007647
vt 0.626409 0.064409
vt 0.500000 0.150000
vt 0.451716 0.007647
vt 0.373591 0.064409
vt 0.343750 0.156250
vt 0.373591 0.248091
vt 0.451716 0.304853
vt 0.548284 0.304853
vt 0.626409 0.248091
vt 0.656250 0.156250
vt 0.626409 0.935591
vt 0.548284 0.992353
vt 0.500000 0.837500
vt 0.451716 0.992353
vt 0.373591 0.935591
vt 0.343750 0.843750
vt 0.373591 0.751909
vt 0.451716 0.695147
vt 0.548284 0.695147
vt 0.626409 0.751909
vt 0.656250 0.843750
vt 0.375000 0.312500
vt 0.400000 0.312500
vt 0.400000 0.688440
vt 0.375000 0.688440
vt 0.425000 0.312500
vt 0.425000 0.688440
vt 0.450000 0.312500
vt 0.450000 0.688440
vt 0.475000 0.312500
vt 0.475000 0.688440
vt 0.500000 0.312500
vt 0.500000 0.688440
vt 0.525000 0.312500
vt 0.525000 0.688440
vt 0.550000 0.312500
vt 0.550000 0.688440
vt 0.575000 0.312500
vt 0.575000 0.688440
vt 0.600000 0.312500
vt 0.600000 0.688440
vt 0.625000 0.312500
vt 0.625000 0.688440
vt 0.626409 0.935591
vt 0.548284 0.992353
vt 0.500000 0.837500
vt 0.451716 0.992353
vt 0.373591 0.935591
vt 0.343750 0.843750
vt 0.373591 0.751909
vt 0.451716 0.695147
vt 0.548284 0.695147
vt 0.626409 0.751909
vt 0.656250 0.843750
vn 0.587785 0.000000 -0.809017
vn 0.587785 0.000000 -0.809017
vn 0.587785 0.000000 -0.809017
vn 0.587785 0.000000 -0.809017
vn -0.000000 0.000000 -1.000000
vn -0.000000 0.000000 -1.000000
vn -0.000000 0.000000 -1.000000
vn -0.000000 0.000000 -1.000000
vn -0.587785 0.000000 -0.809017
vn -0.587785 0.000000 -0.809017
vn -0.587785 0.000000 -0.809017
vn -0.587785 0.000000 -0.809017
vn -0.951057 0.000000 -0.309017
vn -0.951057 0.000000 -0.309017
vn -0.951057 0.000000 -0.309017
vn -0.951057 0.000000 -0.309017
vn -0.951056 0.000000 0.309017
vn -0.951056 0.000000 0.309017
vn -0.951056 0.000000 0.309017
vn -0.951056 0.000000 0.309017
vn -0.587785 0.000000 0.809017
vn -0.587785 0.000000 0.809017
vn -0.587785 0.000000 0.809017
vn -0.587785 0.000000 0.809017
vn 0.000000 0.000000 1.000000
vn 0.000000 0.000000 1.000000
vn 0.000000 0.000000 1.000000
vn 0.000000 0.000000 1.000000
vn 0.587785 0.000000 0.809017
vn 0.587785 0.000000 0.809017
vn 0.587785 0.000000 0.809017
vn 0.587785 0.000000 0.809017
vn 0.951057 0.000000 0.309017
vn 0.951057 0.000000 0.309017
vn 0.951057 0.000000 0.309017
vn 0.951057 0.000000 0.309017
vn 0.951057 0.000000 -0.309017
vn 0.951057 0.000000 -0.309017
vn 0.951057 0.000000 -0.309017
vn 0.951057 0.000000 -0.309017
vn 0.000000 -1.000000 0.000000
vn 0.000000 -1.000000 0.000000
vn 0.000000 -1.000000 0.000000
vn 0.000000 -1.000000 0.000000
vn 0.000000 -1.000000 0.000000
vn 0.000000 -1.000000 0.000000
vn 0.000000 -1.000000 0.000000
vn 0.000000 -1.000000 0.000000
vn 0.000000 -1.000000 0.000000
vn 0.000000 -1.000000 0.000000
vn 0.000000 -1.000000 0.000000
vn 0.000000 -1.000000 0.000000
vn 0.000000 -1.000000 0.000000
vn 0.000000 -1.000000 0.000000
vn 0.000000 -1.000000 0.000000
vn 0.000000 -1.000000 0.000000
vn 0.000000 -1.000000 0.000000
vn 0.000000 -1.000000 0.000000
vn 0.000000 -1.000000 0.000000
vn 0.000000 -1.000000 0.000000
vn 0.000000 -1.000000 0.000000
vn 0.000000 -1.000000 0.000000
vn 0.000000 -1.000000 0.000000
vn 0.000000 -1.000000 0.000000
vn 0.000000 -1.000000 0.000000
vn 0.000000 -1.000000 0.000000
vn 0.000000 -1.000000 0.000000
vn 0.000000 -1.000000 0.000000
vn 0.000000 -1.000000 0.000000
vn 0.000000 -1.000000 0.000000
vn 0.000000 1.000000 0.000000
vn 0.000000 1.000000 0.000000
vn 0.000000 1.000000 0.000000
vn 0.000000 1.000000 0.000000
vn 0.000000 1.000000 0.000000
vn 0.000000 1.000000 0.000000
vn 0.000000 1.000000 0.000000
vn 0.000000 1.000000 0.000000
vn 0.000000 1.000000 0.000000
vn 0.000000 1.000000 0.000000
vn 0.000000 1.000000 0.000000
vn 0.000000 1.000000 0.000000
vn 0.000000 1.000000 0.000000
vn 0.000000 1.000000 0.000000
vn 0.000000 1.000000 0.000000
vn 0.000000 1.000000 0.000000
vn 0.000000 1.000000 0.000000
vn 0.000000 1.000000 0.000000
vn 0.000000 1.000000 0.000000
vn 0.000000 1.000000 0.000000
vn 0.000000 1.000000 0.000000
vn 0.000000 1.000000 0.000000
vn 0.000000 1.000000 0.000000
vn 0.000000 1.000000 0.000000
vn 0.000000 1.000000 0.000000
vn 0.000000 1.000000 0.000000
vn 0.000000 1.000000 0.000000
vn 0.000000 1.000000 0.000000
vn 0.000000 1.000000 0.000000
vn 0.000000 1.000000 0.000000
vn 0.535962 -0.465277 -0.704459
vn 0.535962 -0.465277 -0.704459
vn 0.537243 -0.408150 -0.738094
vn 0.537104 -0.385453 -0.750297
vn 0.000000 -0.554288 -0.832325
vn 0.000000 -0.554288 -0.832325
vn 0.000000 -0.469892 -0.882724
vn 0.000000 -0.469892 -0.882724
vn -0.535962 -0.465277 -0.704458
vn -0.535963 -0.465277 -0.704458
vn -0.537105 -0.385453 -0.750296
vn -0.537244 -0.408150 -0.738094
vn -0.937371 -0.189486 -0.292285
vn -0.937371 -0.189486 -0.292285
vn -0.937597 -0.155666 -0.310934
vn -0.937665 -0.171654 -0.302192
vn -0.937437 0.186937 0.293711
vn -0.937437 0.186938 0.293711
vn -0.937588 0.155054 0.311267
vn -0.937665 0.171646 0.302196
vn -0.536567 0.449181 0.714375
vn -0.536567 0.449181 0.714375
vn -0.537075 0.383538 0.751298
vn -0.537242 0.408615 0.737838
vn 0.000000 0.530718 0.847548
vn 0.000000 0.530718 0.847548
vn 0.000000 0.469892 0.882724
vn 0.000000 0.469892 0.882724
vn 0.536567 0.449181 0.714375
vn 0.536567 0.449181 0.714375
vn 0.537242 0.408615 0.737838
vn 0.537076 0.383538 0.751298
vn 0.937437 0.186937 0.293711
vn 0.937437 0.186937 0.293711
vn 0.937665 0.171646 0.302196
vn 0.937588 0.155054 0.311266
vn 0.937371 -0.189486 -0.292284
vn 0.937371 -0.189486 -0.292284
vn 0.937665 -0.171654 -0.302192
vn 0.937597 -0.155666 -0.310934
vn 0.537104 -0.385453 -0.750297
vn 0.537243 -0.408150 -0.738094
vn 0.567536 -0.006183 -0.823325
vn 0.567541 -0.008128 -0.823305
vn 0.000000 -0.469892 -0.882724
vn 0.000000 -0.469892 -0.882724
vn 0.000000 -0.008332 -0.999965
vn 0.000000 -0.008332 -0.999965
vn -0.537244 -0.408150 -0.738094
vn -0.537105 -0.385453 -0.750296
vn -0.567542 -0.008128 -0.823305
vn -0.567537 -0.006183 -0.823325
vn -0.937665 -0.171654 -0.302192
vn -0.937597 -0.155666 -0.310934
vn -0.945538 -0.003962 -0.325488
vn -0.945535 -0.002454 -0.325511
vn -0.937665 0.171646 0.302196
vn -0.937588 0.155054 0.311267
vn -0.944722 0.004814 0.327838
vn -0.944718 0.003064 0.327870
vn -0.537242 0.408615 0.737838
vn -0.537075 0.383538 0.751298
vn -0.559183 0.013452 0.828935
vn -0.559173 0.010571 0.828984
vn 0.000000 0.469892 0.882724
vn 0.000000 0.469892 0.882724
vn 0.000000 0.015608 0.999878
vn 0.000000 0.015608 0.999878
vn 0.537076 0.383538 0.751298
vn 0.537242 0.408615 0.737838
vn 0.559174 0.010571 0.828983
vn 0.559185 0.013452 0.828934
vn 0.937588 0.155054 0.311266
vn 0.937665 0.171646 0.302196
vn 0.944718 0.003064 0.327870
vn 0.944722 0.004814 0.327838
vn 0.937597 -0.155666 -0.310934
vn 0.937665 -0.171654 -0.302192
vn 0.945535 -0.002454 -0.325511
vn 0.945538 -0.003962 -0.325488
vn 0.567541 -0.008128 -0.823305
vn 0.567536 -0.006183 -0.823325
vn 0.537146 0.481478 -0.692570
vn 0.537870 0.442046 -0.717838
vn 0.000000 -0.008332 -0.999965
vn 0.000000 -0.008332 -0.999965
vn 0.000000 0.549635 -0.835405
vn 0.000000 0.549635 -0.835405
vn -0.567537 -0.006183 -0.823325
vn -0.567542 -0.008128 -0.823305
vn -0.537871 0.442046 -0.717838
vn -0.537146 0.481477 -0.692570
vn -0.945535 -0.002454 -0.325511
vn -0.945538 -0.003962 -0.325488
vn -0.937254 0.174803 -0.301661
vn -0.936537 0.203260 -0.285630
vn -0.944718 0.003064 0.327870
vn -0.944722 0.004814 0.327838
vn -0.936359 -0.171475 0.306314
vn -0.935150 -0.201372 0.291451
vn -0.559173 0.010571 0.828984
vn -0.559183 0.013452 0.828935
vn -0.529167 -0.417656 0.738611
vn -0.525951 -0.460265 0.715215
vn 0.000000 0.015608 0.999878
vn 0.000000 0.015608 0.999878
vn -0.000001 -0.512063 0.858948
vn -0.000001 -0.512064 0.858948
vn 0.559185 0.013452 0.828934
vn 0.559174 0.010571 0.828983
vn 0.525953 -0.460264 0.715214
vn 0.529169 -0.417655 0.738610
vn 0.944722 0.004814 0.327838
vn 0.944718 0.003064 0.327870
vn 0.935150 -0.201372 0.291451
vn 0.936359 -0.171475 0.306314
vn 0.945538 -0.003962 -0.325488
vn 0.945535 -0.002454 -0.325511
vn 0.936537 0.203260 -0.285630
vn 0.937254 0.174803 -0.301661
vn 0.537870 0.442046 -0.717838
vn 0.537146 0.481478 -0.692570
vn 0.530542 0.572223 -0.625368
vn 0.530542 0.572223 -0.625368
vn 0.000000 0.549635 -0.835405
vn 0.000000 0.549635 -0.835405
vn 0.000000 0.679939 -0.733268
vn 0.000000 0.679939 -0.733268
vn -0.537146 0.481477 -0.692570
vn -0.537871 0.442046 -0.717838
vn -0.530542 0.572223 -0.625368
vn -0.530542 0.572223 -0.625368
vn -0.936537 0.203260 -0.285630
vn -0.937254 0.174803 -0.301661
vn -0.934495 0.235496 -0.266948
vn -0.934495 0.235496 -0.266948
vn -0.935150 -0.201372 0.291451
vn -0.936359 -0.171475 0.306314
vn -0.932831 -0.231752 0.275895
vn -0.932831 -0.231752 0.275895
vn -0.525951 -0.460265 0.715215
vn -0.529167 -0.417656 0.738611
vn -0.516630 -0.536706 0.667113
vn -0.516630 -0.536706 0.667113
vn -0.000001 -0.512064 0.858948
vn -0.000001 -0.512063 0.858948
vn -0.000001 -0.620205 0.784440
vn -0.000001 -0.620205 0.784440
vn 0.529169 -0.417655 0.738610
vn 0.525953 -0.460264 0.715214
vn 0.516632 -0.536706 0.667112
vn 0.516632 -0.536706 0.667112
vn 0.936359 -0.171475 0.306314
vn 0.935150 -0.201372 0.291451
vn 0.932831 -0.231752 0.275895
vn 0.932831 -0.231752 0.275895
vn 0.937254 0.174803 -0.301661
vn 0.936537 0.203260 -0.285630
vn 0.934495 0.235496 -0.266948
vn 0.934495 0.235496 -0.266948
vn 0.000000 -1.000000 -0.000001
vn 0.000000 -1.000000 0.000000
vn 0.000000 -1.000000 0.000000
vn 0.000000 -1.000000 -0.000001
vn 0.000000 -1.000000 -0.000001
vn 0.000000 -1.000000 0.000000
vn 0.000000 -1.000000 0.000000
vn 0.000000 -1.000000 -0.000001
vn 0.000000 -1.000000 0.000000
vn 0.000000 -1.000000 0.000000
vn 0.000000 -1.000000 0.000000
vn 0.000000 -1.000000 0.000000
vn 0.000000 -1.000000 0.000000
vn 0.000000 -1.000000 0.000000
vn 0.000000 -1.000000 0.000000
vn 0.000000 -1.000000 0.000000
vn 0.000000 -1.000000 0.000000
vn 0.000000 -1.000000 0.000000
vn 0.000000 -1.000000 0.000000
vn 0.000000 -1.000000 0.000000
vn 0.000000 -1.000000 0.000000
vn 0.000000 -1.000000 0.000000
vn 0.000000 -1.000000 0.000000
vn 0.000000 -1.000000 0.000000
vn 0.000000 -1.000000 0.000000
vn 0.000000 -1.000000 0.000000
vn 0.000000 -1.000000 0.000000
vn 0.000000 -1.000000 0.000000
vn 0.000000 -1.000000 0.000000
vn 0.000000 -1.000000 0.000000
vn 0.000000 0.122361 0.992486
vn 0.000000 0.122361 0.992486
vn 0.000000 0.122360 0.992486
vn 0.000000 0.122361 0.992486
vn 0.000000 0.122361 0.992486
vn 0.000000 0.122360 0.992486
vn 0.000000 0.122361 0.992486
vn 0.000000 0.122360 0.992486
vn 0.000000 0.122360 0.992486
vn 0.000000 0.122360 0.992486
vn 0.000000 0.122360 0.992486
vn 0.000000 0.122360 0.992486
vn 0.000000 0.122360 0.992486
vn 0.000000 0.122360 0.992486
vn 0.000000 0.122360 0.992486
vn 0.000000 0.122360 0.992486
vn 0.000000 0.122360 0.992486
vn 0.000000 0.122360 0.992486
vn 0.000000 0.122360 0.992486
vn -0.000001 0.122360 0.992486
vn 0.000000 0.122360 0.992486
vn -0.000001 0.122360 0.992486
vn 0.000000 0.122360 0.992486
vn 0.000000 0.122360 0.992486
vn 0.000000 0.122360 0.992486
vn 0.000000 0.122361 0.992486
vn 0.000000 0.122360 0.992486
vn 0.000000 0.122361 0.992486
vn 0.000000 0.122361 0.992486
vn 0.000000 0.122360 0.992486
vn 0.560144 -0.369748 -0.741300
vn 0.560144 -0.369748 -0.741300
vn 0.560144 -0.369748 -0.741300
vn 0.560144 -0.369748 -0.741300
vn 0.000000 -0.501072 -0.865405
vn 0.000000 -0.501072 -0.865405
vn 0.000000 -0.501072 -0.865405
vn 0.000000 -0.501072 -0.865405
vn -0.560145 -0.369748 -0.741299
vn -0.560145 -0.369748 -0.741299
vn -0.560145 -0.369748 -0.741299
vn -0.560145 -0.369748 -0.741299
vn -0.910198 -0.021261 -0.413627
vn -0.910198 -0.021261 -0.413627
vn -0.910198 -0.021261 -0.413627
vn -0.910198 -0.021261 -0.413627
vn -0.910198 0.414105 -0.007555
vn -0.910198 0.414105 -0.007555
vn -0.910198 0.414105 -0.007555
vn -0.910198 0.414105 -0.007555
vn -0.560148 0.765217 0.317296
vn -0.560148 0.765217 0.317296
vn -0.560148 0.765217 0.317296
vn -0.560148 0.765217 0.317296
vn 0.000000 0.898158 0.439673
vn 0.000000 0.898158 0.439673
vn 0.000000 0.898158 0.439673
vn 0.000000 0.898158 0.439673
vn 0.560147 0.765218 0.317297
vn 0.560147 0.765218 0.317297
vn 0.560147 0.765218 0.317297
vn 0.560147 0.765218 0.317297
vn 0.910198 0.414104 -0.007556
vn 0.910198 0.414104 -0.007556
vn 0.910198 0.414104 -0.007556
vn 0.910198 0.414104 -0.007556
vn 0.910198 -0.021261 -0.413627
vn 0.910198 -0.021261 -0.413627
vn 0.910198 -0.021261 -0.413627
vn 0.910198 -0.021261 -0.413627
vn 0.000002 0.682070 -0.731287
vn 0.000002 0.682072 -0.731285
vn 0.000000 0.682075 -0.731282
vn 0.000002 0.682072 -0.731285
vn -0.000002 0.682070 -0.731287
vn 0.000000 0.682075 -0.731282
vn -0.000002 0.682070 -0.731287
vn -0.000002 0.682070 -0.731287
vn 0.000000 0.682075 -0.731282
vn -0.000002 0.682070 -0.731287
vn 0.000000 0.682076 -0.731281
vn 0.000000 0.682075 -0.731282
vn 0.000000 0.682076 -0.731281
vn -0.000004 0.682080 -0.731277
vn 0.000000 0.682075 -0.731282
vn -0.000004 0.682080 -0.731277
vn -0.000004 0.682079 -0.731279
vn 0.000000 0.682075 -0.731282
vn -0.000004 0.682079 -0.731279
vn 0.000004 0.682078 -0.731279
vn 0.000000 0.682075 -0.731282
vn 0.000004 0.682078 -0.731279
vn 0.000004 0.682080 -0.731278
vn 0.000000 0.682075 -0.731282
vn 0.000004 0.682080 -0.731278
vn 0.000000 0.682075 -0.731282
vn 0.000000 0.682075 -0.731282
vn 0.000000 0.682075 -0.731282
vn 0.000002 0.682070 -0.731287
vn 0.000000 0.682075 -0.731282
s off
f 1/1/1 2/2/2 12/3/3 11/4/4
f 2/2/5 3/5/6 13/6/7 12/3/8
f 3/5/9 4/7/10 14/8/11 13/6/12
f 4/7/13 5/9/14 15/10/15 14/8/16
f 5/9/17 6/11/18 16/12/19 15/10/20
f 6/11/21 7/13/22 17/14/23 16/12/24
f 7/13/25 8/15/26 18/16/27 17/14/28
f 8/15/29 9/17/30 19/18/31 18/16/32
f 9/17/33 10/19/34 20/20/35 19/18/36
f 10/19/37 1/21/38 11/22/39 20/20/40
f 2/23/41 1/24/42 21/25/43
f 3/26/44 2/23/45 21/25/46
f 4/27/47 3/26/48 21/25/49
f 5/28/50 4/27/51 21/25/52
f 6/29/53 5/28/54 21/25/55
f 7/30/56 6/29/57 21/25/58
f 8/31/59 7/30/60 21/25/61
f 9/32/62 8/31/63 21/25/64
f 10/33/65 9/32/66 21/25/67
f 1/24/68 10/33/69 21/25/70
f 11/34/71 12/35/72 22/36/73
f 12/35/74 13/37/75 22/36/76
f 13/37/77 14/38/78 22/36/79
f 14/38/80 15/39/81 22/36/82
f 15/39/83 16/40/84 22/36/85
f 16/40/86 17/41/87 22/36/88
f 17/41/89 18/42/90 22/36/91
f 18/42/92 19/43/93 22/36/94
f 19/43/95 20/44/96 22/36/97
f 20/44/98 11/34/99 22/36/100
f 23/45/101 24/46/102 34/47/103 33/48/104
f 24/46/105 25/49/106 35/50/107 34/47/108
f 25/49/109 26/51/110 36/52/111 35/50/112
f 26/51/113 27/53/114 37/54/115 36/52/116
f 27/53/117 28/55/118 38/56/119 37/54/120
f 28/55/121 29/57/122 39/58/123 38/56/124
f 29/57/125 30/59/126 40/60/127 39/58/128
f 30/59/129 31/61/130 41/62/131 40/60/132
f 31/61/133 32/63/134 42/64/135 41/62/136
f 32/63/137 23/65/138 33/66/139 42/64/140
f 33/48/141 34/47/142 44/67/143 43/68/144
f 34/47/145 35/50/146 45/69/147 44/67/148
f 35/50/149 36/52/150 46/70/151 45/69/152
f 36/52/153 37/54/154 47/71/155 46/70/156
f 37/54/157 38/56/158 48/72/159 47/71/160
f 38/56/161 39/58/162 49/73/163 48/72/164
f 39/58/165 40/60/166 50/74/167 49/73/168
f 40/60/169 41/62/170 51/75/171 50/74/172
f 41/62/173 42/64/174 52/76/175 51/75/176
f 42/64/177 33/66/178 43/77/179 52/76/180
f 43/68/181 44/67/182 54/78/183 53/79/184
f 44/67/185 45/69/186 55/80/187 54/78/188
f 45/69/189 46/70/190 56/81/191 55/80/192
f 46/70/193 47/71/194 57/82/195 56/81/196
f 47/71/197 48/72/198 58/83/199 57/82/200
f 48/72/201 49/73/202 59/84/203 58/83/204
f 49/73/205 50/74/206 60/85/207 59/84/208
f 50/74/209 51/75/210 61/86/211 60/85/212
f 51/75/213 52/76/214 62/87/215 61/86/216
f 52/76/217 43/77/218 53/88/219 62/87/220
f 53/79/221 54/78/222 64/89/223 63/90/224
f 54/78/225 55/80/226 65/91/227 64/89/228
f 55/80/229 56/81/230 66/92/231 65/91/232
f 56/81/233 57/82/234 67/93/235 66/92/236
f 57/82/237 58/83/238 68/94/239 67/93/240
f 58/83/241 59/84/242 69/95/243 68/94/244
f 59/84/245 60/85/246 70/96/247 69/95/248
f 60/85/249 61/86/250 71/97/251 70/96/252
f 61/86/253 62/87/254 72/98/255 71/97/256
f 62/87/257 53/88/258 63/99/259 72/98/260
f 24/100/261 23/101/262 73/102/263
f 25/103/264 24/100/265 73/102/266
f 26/104/267 25/103/268 73/102/269
f 27/105/270 26/104/271 73/102/272
f 28/106/273 27/105/274 73/102/275
f 29/107/276 28/106/277 73/102/278
f 30/108/279 29/107/280 73/102/281
f 31/109/282 30/108/283 73/102/284
f 32/110/285 31/109/286 73/102/287
f 23/101/288 32/110/289 73/102/290
f 63/111/291 64/112/292 74/113/293
f 64/112/294 65/114/295 74/113/296
f 65/114/297 66/115/298 74/113/299
f 66/115/300 67/116/301 74/113/302
f 67/116/303 68/117/304 74/113/305
f 68/117/306 69/118/307 74/113/308
f 69/118/309 70/119/310 74/113/311
f 70/119/312 71/120/313 74/113/314
f 71/120/315 72/121/316 74/113/317
f 72/121/318 63/111/319 74/113/320
f 75/122/321 76/123/322 86/124/323 85/125/324
f 76/123/325 77/126/326 87/127/327 86/124/328
f 77/126/329 78/128/330 88/129/331 87/127/332
f 78/128/333 79/130/334 89/131/335 88/129/336
f 79/130/337 80/132/338 90/133/339 89/131/340
f 80/132/341 81/134/342 91/135/343 90/133/344
f 81/134/345 82/136/346 92/137/347 91/135/348
f 82/136/349 83/138/350 93/139/351 92/137/352
f 83/138/353 84/140/354 94/141/355 93/139/356
f 84/140/357 75/142/358 85/143/359 94/141/360
f 85/144/361 86/145/362 95/146/363
f 86/145/364 87/147/365 95/146/366
f 87/147/367 88/148/368 95/146/369
f 88/148/370 89/149/371 95/146/372
f 89/149/373 90/150/374 95/146/375
f 90/150/376 91/151/377 95/146/378
f 91/151/379 92/152/380 95/146/381
f 92/152/382 93/153/383 95/146/384
f 93/153/385 94/154/386 95/146/387
f 94/154/388 85/144/389 95/146/390
v 0.404509 0.879407 0.347922
v 0.154508 0.746567 0.224047
v -0.154509 0.746567 0.224047
v -0.404509 0.879407 0.347922
v -0.500000 1.094346 0.548357
v -0.404509 1.309286 0.748791
v -0.154508 1.442126 0.872666
v 0.154509 1.442126 0.872666
v 0.404509 1.309286 0.748791
v 0.500000 1.094346 0.548357
v 0.000000 1.435346 0.182680
vt 0.250000 0.500000
vt 0.300000 0.500000
vt 0.350000 0.500000
vt 0.400000 0.500000
vt 0.450000 0.500000
vt 0.500000 0.500000
vt 0.550000 0.500000
vt 0.600000 0.500000
vt 0.650000 0.500000
vt 0.700000 0.500000
vt 0.750000 0.500000
vt 0.500000 1.000000
vn -0.425919 -0.041261 0.903820
vn -0.425919 -0.041261 0.903820
vn -0.425919 -0.041261 0.903820
vn 0.000000 0.059951 0.998201
vn 0.000000 0.059951 0.998201
vn 0.000000 0.059951 0.998201
vn 0.425919 -0.041261 0.903820
vn 0.425919 -0.041261 0.903820
vn 0.425919 -0.041261 0.903820
vn 0.689152 -0.306237 0.656726
vn 0.689152 -0.306237 0.656726
vn 0.689152 -0.306237 0.656726
vn 0.689152 -0.633764 0.351301
vn 0.689152 -0.633764 0.351301
vn 0.689152 -0.633764 0.351301
vn 0.425919 -0.898740 0.104208
vn 0.425919 -0.898740 0.104208
vn 0.425919 -0.898740 0.104208
vn -0.000000 -0.999952 0.009826
vn -0.000000 -0.999952 0.009826
vn -0.000000 -0.999952 0.009826
vn -0.425919 -0.898740 0.104208
vn -0.425919 -0.898740 0.104208
vn -0.425919 -0.898740 0.104208
vn -0.689152 -0.633764 0.351301
vn -0.689152 -0.633764 0.351301
vn -0.689152 -0.633764 0.351301
vn -0.689152 -0.306236 0.656726
vn -0.689152 -0.306236 0.656726
vn -0.689152 -0.306236 0.656726
s off
f 96/155/391 106/166/392 97/156/393
f 97/156/394 106/166/395 98/157/396
f 98/157/397 106/166/398 99/158/399
f 99/158/400 106/166/401 100/159/402
f 100/159/403 106/166/404 101/160/405
f 101/160/406 106/166/407 102/161/408
f 102/161/409 106/166/410 103/162/411
f 103/162/412 106/166/413 104/163/414
f 104/163/415 106/166/416 105/164/417
f 105/164/418 106/166/419 96/165/420
