# This file uses centimeters as units for non-parametric coordinates.

mtllib reception.mtl
v -36.900000 -2.481024 8.300000
v -20.400000 -2.481024 8.300000
v -36.900000 -1.681024 8.300000
v -20.400000 -1.681024 8.300000
v -36.900000 -1.681024 -0.500000
v -20.400000 -1.681024 -0.500000
v -36.900000 -2.481024 -0.500000
v -20.400000 -2.481024 -0.500000
vt 0.050000 0.000000
vt 0.175000 0.000000
vt 0.050000 0.250000
vt 0.175000 0.250000
vt 0.050000 0.500000
vt 0.175000 0.500000
vt 0.050000 0.750000
vt 0.175000 0.750000
vt 0.050000 1.000000
vt 0.175000 1.000000
vt 0.250000 0.000000
vt 0.250000 0.250000
vt 0.000000 0.000000
vt 0.000000 0.250000
vn 0.000000 0.000000 1.000000
vn 0.000000 0.000000 1.000000
vn 0.000000 0.000000 1.000000
vn 0.000000 0.000000 1.000000
vn 0.000000 1.000000 0.000000
vn 0.000000 1.000000 0.000000
vn 0.000000 1.000000 0.000000
vn 0.000000 1.000000 0.000000
vn 0.000000 0.000000 -1.000000
vn 0.000000 0.000000 -1.000000
vn 0.000000 0.000000 -1.000000
vn 0.000000 0.000000 -1.000000
vn 0.000000 -1.000000 0.000000
vn 0.000000 -1.000000 0.000000
vn 0.000000 -1.000000 0.000000
vn 0.000000 -1.000000 0.000000
vn 1.000000 0.000000 0.000000
vn 1.000000 0.000000 0.000000
vn 1.000000 0.000000 0.000000
vn 1.000000 0.000000 0.000000
vn -1.000000 0.000000 0.000000
vn -1.000000 0.000000 0.000000
vn -1.000000 0.000000 0.000000
vn -1.000000 0.000000 0.000000
s off
usemtl initialShadingGroup
f 1/1/1 2/2/2 4/4/3 3/3/4
f 3/3/5 4/4/6 6/6/7 5/5/8
f 5/5/9 6/6/10 8/8/11 7/7/12
f 7/7/13 8/8/14 2/10/15 1/9/16
f 2/2/17 8/11/18 6/12/19 4/4/20
f 7/13/21 1/1/22 3/3/23 5/14/24
v -11.600000 -2.481024 38.000000
v -11.600000 -2.481024 8.300000
v -11.600000 -1.681024 38.000000
v -11.600000 -1.681024 8.300000
v -20.400000 -1.681024 38.000000
v -20.400000 -1.681024 8.300000
v -20.400000 -2.481024 38.000000
v -20.400000 -2.481024 8.300000
vt 0.050000 0.000000
vt 0.175000 0.000000
vt 0.050000 0.250000
vt 0.175000 0.250000
vt 0.050000 0.500000
vt 0.175000 0.500000
vt 0.050000 0.750000
vt 0.175000 0.750000
vt 0.050000 1.000000
vt 0.175000 1.000000
vt 0.250000 0.000000
vt 0.250000 0.250000
vt 0.000000 0.000000
vt 0.000000 0.250000
vn 1.000000 0.000000 0.000000
vn 1.000000 0.000000 0.000000
vn 1.000000 0.000000 0.000000
vn 1.000000 0.000000 0.000000
vn 0.000000 1.000000 0.000000
vn 0.000000 1.000000 0.000000
vn 0.000000 1.000000 0.000000
vn 0.000000 1.000000 0.000000
vn -1.000000 0.000000 -0.000000
vn -1.000000 0.000000 -0.000000
vn -1.000000 0.000000 -0.000000
vn -1.000000 0.000000 -0.000000
vn 0.000000 -1.000000 0.000000
vn 0.000000 -1.000000 0.000000
vn 0.000000 -1.000000 0.000000
vn 0.000000 -1.000000 0.000000
vn 0.000000 0.000000 -1.000000
vn 0.000000 0.000000 -1.000000
vn 0.000000 0.000000 -1.000000
vn 0.000000 0.000000 -1.000000
vn -0.000000 0.000000 1.000000
vn -0.000000 0.000000 1.000000
vn -0.000000 0.000000 1.000000
vn -0.000000 0.000000 1.000000
s off
f 9/15/25 10/16/26 12/18/27 11/17/28
f 11/17/29 12/18/30 14/20/31 13/19/32
f 13/19/33 14/20/34 16/22/35 15/21/36
f 15/21/37 16/22/38 10/24/39 9/23/40
f 10/16/41 16/25/42 14/26/43 12/18/44
f 15/27/45 9/15/46 11/17/47 13/28/48
v -12.030697 -2.481024 5.580649
v -13.280646 -2.481024 3.127487
v -15.227487 -2.481024 1.180646
v -17.680649 -2.481024 -0.069302
v -20.400000 -2.481024 -0.500004
v -11.600000 -2.481024 8.300000
v -12.030697 -1.681024 5.580649
v -13.280646 -1.681024 3.127487
v -15.227487 -1.681024 1.180646
v -17.680649 -1.681024 -0.069302
v -20.400000 -1.681024 -0.500004
v -11.600000 -1.681024 8.300000
v -20.400000 -2.481024 8.300000
v -20.400000 -1.681024 8.300000
vt 0.198603 0.107966
vt 0.176409 0.064409
vt 0.141842 0.029841
vt 0.098284 0.007647
vt 0.050000 0.000000
vt 0.206250 0.156250
vt 0.050000 0.312500
vt 0.062500 0.312500
vt 0.075000 0.312500
vt 0.087500 0.312500
vt 0.100000 0.312500
vt 0.162500 0.312500
vt 0.175000 0.312500
vt 0.050000 0.688440
vt 0.062500 0.688440
vt 0.075000 0.688440
vt 0.087500 0.688440
vt 0.100000 0.688440
vt 0.162500 0.688440
vt 0.175000 0.688440
vt 0.050000 1.000000
vt 0.098284 0.992353
vt 0.141841 0.970159
vt 0.176409 0.935592
vt 0.198603 0.892034
vt 0.206250 0.843750
vt 0.050000 0.150000
vt 0.050000 0.837500
vn 0.951057 0.000000 -0.309016
vn 0.809017 0.000000 -0.587785
vn 0.809017 0.000000 -0.587785
vn 0.951057 0.000000 -0.309016
vn 0.587785 0.000000 -0.809017
vn 0.587785 0.000000 -0.809017
vn 0.309017 0.000000 -0.951057
vn 0.309017 0.000000 -0.951057
vn 0.156434 0.000000 -0.987688
vn 0.156434 0.000000 -0.987688
vn 0.987689 0.000000 -0.156432
vn 0.987689 0.000000 -0.156432
vn 0.000000 -1.000000 0.000000
vn 0.000000 -1.000000 0.000000
vn 0.000000 -1.000000 0.000000
vn 0.000000 -1.000000 0.000000
vn 0.000000 -1.000000 0.000000
vn 0.000000 -1.000000 0.000000
vn 0.000000 -1.000000 0.000000
vn 0.000000 1.000000 0.000000
vn 0.000000 1.000000 0.000000
vn 0.000000 1.000000 0.000000
vn 0.000000 1.000000 0.000000
vn 0.000000 1.000000 0.000000
vn 0.000000 1.000000 0.000000
vn 0.000000 1.000000 0.000000
s 1
f 17/35/49 18/36/50 24/43/51 23/42/52
f 18/36/50 19/37/53 25/44/54 24/43/51
f 19/37/53 20/38/55 26/45/56 25/44/54
f 20/38/55 21/39/57 27/46/58 26/45/56
f 22/40/59 17/41/49 23/48/52 28/47/60
s 2
f 18/30/61 17/29/62 29/55/63
f 19/31/64 18/30/61 29/55/63
f 20/32/65 19/31/64 29/55/63
f 21/33/66 20/32/65 29/55/63
f 17/29/62 22/34/67 29/55/63
s 3
f 23/53/68 24/52/69 30/56/70
f 24/52/69 25/51/71 30/56/70
f 25/51/71 26/50/72 30/56/70
f 26/50/72 27/49/73 30/56/70
f 28/54/74 23/53/68 30/56/70
v -12.000000 -10.000000 35.000000
v -12.000000 -10.000000 8.000000
v -12.000000 -2.000000 35.000000
v -12.000000 -2.000000 8.000000
v -20.000000 -2.000000 35.000000
v -20.000000 -2.000000 8.000000
v -20.000000 -10.000000 35.000000
v -20.000000 -10.000000 8.000000
vt 0.700000 0.000000
vt 0.950000 0.000000
vt 0.700000 0.250000
vt 0.950000 0.250000
vt 0.700000 0.500000
vt 0.950000 0.500000
vt 0.700000 0.750000
vt 0.950000 0.750000
vt 0.700000 1.000000
vt 0.950000 1.000000
vt 1.000000 0.000000
vt 1.000000 0.250000
vt 0.650000 0.000000
vt 0.650000 0.250000
vn 1.000000 0.000000 0.000000
vn 1.000000 0.000000 0.000000
vn 1.000000 0.000000 0.000000
vn 1.000000 0.000000 0.000000
vn 0.000000 1.000000 0.000000
vn 0.000000 1.000000 0.000000
vn 0.000000 1.000000 0.000000
vn 0.000000 1.000000 0.000000
vn -1.000000 0.000000 -0.000000
vn -1.000000 0.000000 -0.000000
vn -1.000000 0.000000 -0.000000
vn -1.000000 0.000000 -0.000000
vn 0.000000 -1.000000 0.000000
vn 0.000000 -1.000000 0.000000
vn 0.000000 -1.000000 0.000000
vn 0.000000 -1.000000 0.000000
vn 0.000000 0.000000 -1.000000
vn 0.000000 0.000000 -1.000000
vn 0.000000 0.000000 -1.000000
vn 0.000000 0.000000 -1.000000
vn -0.000000 0.000000 1.000000
vn -0.000000 0.000000 1.000000
vn -0.000000 0.000000 1.000000
vn -0.000000 0.000000 1.000000
s off
f 31/57/75 32/58/76 34/60/77 33/59/78
f 33/59/79 34/60/80 36/62/81 35/61/82
f 35/61/83 36/62/84 38/64/85 37/63/86
f 37/63/87 38/64/88 32/66/89 31/65/90
f 32/58/91 38/67/92 36/68/93 34/60/94
f 37/69/95 31/57/96 33/59/97 35/70/98
v -12.391543 -10.000000 5.527863
v -13.527860 -10.000000 3.297715
v -15.297715 -10.000000 1.527860
v -17.527863 -10.000000 0.391544
v -20.000000 -10.000000 -0.000004
v -12.000000 -10.000000 8.000000
v -12.391543 -2.000000 5.527863
v -13.527860 -2.000000 3.297715
v -15.297715 -2.000000 1.527860
v -17.527863 -2.000000 0.391544
v -20.000000 -2.000000 -0.000004
v -12.000000 -2.000000 8.000000
v -20.000000 -10.000000 8.000000
v -20.000000 -2.000000 8.000000
vt 0.973603 0.107966
vt 0.951409 0.064408
vt 0.916842 0.029841
vt 0.873284 0.007647
vt 0.825000 -0.000000
vt 0.981250 0.156250
vt 0.700000 0.312500
vt 0.712500 0.312500
vt 0.725000 0.312500
vt 0.737500 0.312500
vt 0.750000 0.312500
vt 0.937500 0.312500
vt 0.950000 0.312500
vt 0.700000 0.688440
vt 0.712500 0.688440
vt 0.725000 0.688440
vt 0.737500 0.688440
vt 0.750000 0.688440
vt 0.937500 0.688440
vt 0.950000 0.688440
vt 0.825000 1.000000
vt 0.873284 0.992353
vt 0.916841 0.970159
vt 0.951409 0.935591
vt 0.973603 0.892034
vt 0.981250 0.843750
vt 0.825000 0.150000
vt 0.825000 0.837500
vn 0.951057 0.000000 -0.309016
vn 0.809017 0.000000 -0.587785
vn 0.809017 0.000000 -0.587785
vn 0.951057 0.000000 -0.309016
vn 0.587785 0.000000 -0.809017
vn 0.587785 0.000000 -0.809017
vn 0.309017 0.000000 -0.951057
vn 0.309017 0.000000 -0.951057
vn 0.156434 0.000000 -0.987688
vn 0.156434 0.000000 -0.987688
vn 0.987689 0.000000 -0.156432
vn 0.987689 0.000000 -0.156432
vn 0.000000 -1.000000 0.000000
vn 0.000000 -1.000000 0.000000
vn 0.000000 -1.000000 0.000000
vn 0.000000 -1.000000 0.000000
vn 0.000000 -1.000000 0.000000
vn 0.000000 -1.000000 0.000000
vn 0.000000 -1.000000 0.000000
vn 0.000000 1.000000 0.000000
vn 0.000000 1.000000 0.000000
vn 0.000000 1.000000 0.000000
vn 0.000000 1.000000 0.000000
vn 0.000000 1.000000 0.000000
vn 0.000000 1.000000 0.000000
vn 0.000000 1.000000 0.000000
s 1
f 39/77/99 40/78/100 46/85/101 45/84/102
f 40/78/100 41/79/103 47/86/104 46/85/101
f 41/79/103 42/80/105 48/87/106 47/86/104
f 42/80/105 43/81/107 49/88/108 48/87/106
f 44/82/109 39/83/99 45/90/102 50/89/110
s 2
f 40/72/111 39/71/112 51/97/113
f 41/73/114 40/72/111 51/97/113
f 42/74/115 41/73/114 51/97/113
f 43/75/116 42/74/115 51/97/113
f 39/71/112 44/76/117 51/97/113
s 3
f 45/95/118 46/94/119 52/98/120
f 46/94/119 47/93/121 52/98/120
f 47/93/121 48/92/122 52/98/120
f 48/92/122 49/91/123 52/98/120
f 50/96/124 45/95/118 52/98/120
v -35.000000 -10.000000 8.000000
v -20.000000 -10.000000 8.000000
v -35.000000 -2.000000 8.000000
v -20.000000 -2.000000 8.000000
v -35.000000 -2.000000 0.000000
v -20.000000 -2.000000 0.000000
v -35.000000 -10.000000 0.000000
v -20.000000 -10.000000 0.000000
vt 0.700000 0.000000
vt 0.950000 0.000000
vt 0.700000 0.250000
vt 0.950000 0.250000
vt 0.700000 0.500000
vt 0.950000 0.500000
vt 0.700000 0.750000
vt 0.950000 0.750000
vt 0.700000 1.000000
vt 0.950000 1.000000
vt 1.000000 0.000000
vt 1.000000 0.250000
vt 0.650000 0.000000
vt 0.650000 0.250000
vn 0.000000 0.000000 1.000000
vn 0.000000 0.000000 1.000000
vn 0.000000 0.000000 1.000000
vn 0.000000 0.000000 1.000000
vn 0.000000 1.000000 0.000000
vn 0.000000 1.000000 0.000000
vn 0.000000 1.000000 0.000000
vn 0.000000 1.000000 0.000000
vn 0.000000 0.000000 -1.000000
vn 0.000000 0.000000 -1.000000
vn 0.000000 0.000000 -1.000000
vn 0.000000 0.000000 -1.000000
vn 0.000000 -1.000000 0.000000
vn 0.000000 -1.000000 0.000000
vn 0.000000 -1.000000 0.000000
vn 0.000000 -1.000000 0.000000
vn 1.000000 0.000000 0.000000
vn 1.000000 0.000000 0.000000
vn 1.000000 0.000000 0.000000
vn 1.000000 0.000000 0.000000
vn -1.000000 0.000000 0.000000
vn -1.000000 0.000000 0.000000
vn -1.000000 0.000000 0.000000
vn -1.000000 0.000000 0.000000
s off
f 53/99/125 54/100/126 56/102/127 55/101/128
f 55/101/129 56/102/130 58/104/131 57/103/132
f 57/103/133 58/104/134 60/106/135 59/105/136
f 59/105/137 60/106/138 54/108/139 53/107/140
f 54/100/141 60/109/142 58/110/143 56/102/144
f 59/111/145 53/99/146 55/101/147 57/112/148
v -35.000000 -10.000000 8.000000
v -20.000000 -10.000000 8.000000
v -35.000000 -2.000000 8.000000
v -20.000000 -2.000000 8.000000
v -35.000000 -2.000000 0.000000
v -20.000000 -2.000000 0.000000
v -35.000000 -10.000000 0.000000
v -20.000000 -10.000000 0.000000
vt 0.375000 0.000000
vt 0.625000 0.000000
vt 0.375000 0.250000
vt 0.625000 0.250000
vt 0.375000 0.500000
vt 0.625000 0.500000
vt 0.375000 0.750000
vt 0.625000 0.750000
vt 0.375000 1.000000
vt 0.625000 1.000000
vt 0.875000 0.000000
vt 0.875000 0.250000
vt 0.125000 0.000000
vt 0.125000 0.250000
vn 0.000000 0.000000 1.000000
vn 0.000000 0.000000 1.000000
vn 0.000000 0.000000 1.000000
vn 0.000000 0.000000 1.000000
vn 0.000000 1.000000 0.000000
vn 0.000000 1.000000 0.000000
vn 0.000000 1.000000 0.000000
vn 0.000000 1.000000 0.000000
vn 0.000000 0.000000 -1.000000
vn 0.000000 0.000000 -1.000000
vn 0.000000 0.000000 -1.000000
vn 0.000000 0.000000 -1.000000
vn 0.000000 -1.000000 0.000000
vn 0.000000 -1.000000 0.000000
vn 0.000000 -1.000000 0.000000
vn 0.000000 -1.000000 0.000000
vn 1.000000 0.000000 0.000000
vn 1.000000 0.000000 0.000000
vn 1.000000 0.000000 0.000000
vn 1.000000 0.000000 0.000000
vn -1.000000 0.000000 0.000000
vn -1.000000 0.000000 0.000000
vn -1.000000 0.000000 0.000000
vn -1.000000 0.000000 0.000000
s off
f 61/113/149 62/114/150 64/116/151 63/115/152
f 63/115/153 64/116/154 66/118/155 65/117/156
f 65/117/157 66/118/158 68/120/159 67/119/160
f 67/119/161 68/120/162 62/122/163 61/121/164
f 62/114/165 68/123/166 66/124/167 64/116/168
f 67/125/169 61/113/170 63/115/171 65/126/172
v -12.000000 -10.000000 35.000000
v -12.000000 -10.000000 8.000000
v -12.000000 -2.000000 35.000000
v -12.000000 -2.000000 8.000000
v -20.000000 -2.000000 35.000000
v -20.000000 -2.000000 8.000000
v -20.000000 -10.000000 35.000000
v -20.000000 -10.000000 8.000000
vt 0.375000 0.000000
vt 0.625000 0.000000
vt 0.375000 0.250000
vt 0.625000 0.250000
vt 0.375000 0.500000
vt 0.625000 0.500000
vt 0.375000 0.750000
vt 0.625000 0.750000
vt 0.375000 1.000000
vt 0.625000 1.000000
vt 0.875000 0.000000
vt 0.875000 0.250000
vt 0.125000 0.000000
vt 0.125000 0.250000
vn 1.000000 0.000000 0.000000
vn 1.000000 0.000000 0.000000
vn 1.000000 0.000000 0.000000
vn 1.000000 0.000000 0.000000
vn 0.000000 1.000000 0.000000
vn 0.000000 1.000000 0.000000
vn 0.000000 1.000000 0.000000
vn 0.000000 1.000000 0.000000
vn -1.000000 0.000000 -0.000000
vn -1.000000 0.000000 -0.000000
vn -1.000000 0.000000 -0.000000
vn -1.000000 0.000000 -0.000000
vn 0.000000 -1.000000 0.000000
vn 0.000000 -1.000000 0.000000
vn 0.000000 -1.000000 0.000000
vn 0.000000 -1.000000 0.000000
vn 0.000000 0.000000 -1.000000
vn 0.000000 0.000000 -1.000000
vn 0.000000 0.000000 -1.000000
vn 0.000000 0.000000 -1.000000
vn -0.000000 0.000000 1.000000
vn -0.000000 0.000000 1.000000
vn -0.000000 0.000000 1.000000
vn -0.000000 0.000000 1.000000
s off
f 69/127/173 70/128/174 72/130/175 71/129/176
f 71/129/177 72/130/178 74/132/179 73/131/180
f 73/131/181 74/132/182 76/134/183 75/133/184
f 75/133/185 76/134/186 70/136/187 69/135/188
f 70/128/189 76/137/190 74/138/191 72/130/192
f 75/139/193 69/127/194 71/129/195 73/140/196
v -12.391543 -10.000000 5.527863
v -13.527860 -10.000000 3.297715
v -15.297715 -10.000000 1.527860
v -17.527863 -10.000000 0.391544
v -20.000000 -10.000000 -0.000004
v -12.000000 -10.000000 8.000000
v -12.391543 -2.000000 5.527863
v -13.527860 -2.000000 3.297715
v -15.297715 -2.000000 1.527860
v -17.527863 -2.000000 0.391544
v -20.000000 -2.000000 -0.000004
v -12.000000 -2.000000 8.000000
v -20.000000 -10.000000 8.000000
v -20.000000 -2.000000 8.000000
vt 0.648603 0.107966
vt 0.626409 0.064408
vt 0.591842 0.029841
vt 0.548284 0.007647
vt 0.500000 -0.000000
vt 0.656250 0.156250
vt 0.375000 0.312500
vt 0.387500 0.312500
vt 0.400000 0.312500
vt 0.412500 0.312500
vt 0.425000 0.312500
vt 0.612500 0.312500
vt 0.625000 0.312500
vt 0.375000 0.688440
vt 0.387500 0.688440
vt 0.400000 0.688440
vt 0.412500 0.688440
vt 0.425000 0.688440
vt 0.612500 0.688440
vt 0.625000 0.688440
vt 0.500000 1.000000
vt 0.548284 0.992353
vt 0.591841 0.970159
vt 0.626409 0.935591
vt 0.648603 0.892034
vt 0.656250 0.843750
vt 0.500000 0.150000
vt 0.500000 0.837500
vn 0.951057 0.000000 -0.309016
vn 0.809017 0.000000 -0.587785
vn 0.809017 0.000000 -0.587785
vn 0.951057 0.000000 -0.309016
vn 0.587785 0.000000 -0.809017
vn 0.587785 0.000000 -0.809017
vn 0.309017 0.000000 -0.951057
vn 0.309017 0.000000 -0.951057
vn 0.156434 0.000000 -0.987688
vn 0.156434 0.000000 -0.987688
vn 0.987689 0.000000 -0.156432
vn 0.987689 0.000000 -0.156432
vn 0.000000 -1.000000 0.000000
vn 0.000000 -1.000000 0.000000
vn 0.000000 -1.000000 0.000000
vn 0.000000 -1.000000 0.000000
vn 0.000000 -1.000000 0.000000
vn 0.000000 -1.000000 0.000000
vn 0.000000 -1.000000 0.000000
vn 0.000000 1.000000 0.000000
vn 0.000000 1.000000 0.000000
vn 0.000000 1.000000 0.000000
vn 0.000000 1.000000 0.000000
vn 0.000000 1.000000 0.000000
vn 0.000000 1.000000 0.000000
vn 0.000000 1.000000 0.000000
s 1
f 77/147/197 78/148/198 84/155/199 83/154/200
f 78/148/198 79/149/201 85/156/202 84/155/199
f 79/149/201 80/150/203 86/157/204 85/156/202
f 80/150/203 81/151/205 87/158/206 86/157/204
f 82/152/207 77/153/197 83/160/200 88/159/208
s 2
f 78/142/209 77/141/210 89/167/211
f 79/143/212 78/142/209 89/167/211
f 80/144/213 79/143/212 89/167/211
f 81/145/214 80/144/213 89/167/211
f 77/141/210 82/146/215 89/167/211
s 3
f 83/165/216 84/164/217 90/168/218
f 84/164/217 85/163/219 90/168/218
f 85/163/219 86/162/220 90/168/218
f 86/162/220 87/161/221 90/168/218
f 88/166/222 83/165/216 90/168/218
